Coordinates
version=1
nRows=13
nColumns=18
inDegrees=yes

Units are S.I. units (second, meters, Newtons, ...)
If the header above contains a line with 'inDegrees', this indicates whether rotational values are in degrees (yes) or radians (no).

endheader
time	ground_thorax_rot_x	ground_thorax_rot_y	ground_thorax_rot_z	ground_thorax_tx	ground_thorax_ty	ground_thorax_tz	clav_prot	clav_elev	scapula_abduction	scapula_elevation	scapula_upward_rot	scapula_winging	plane_elv	shoulder_elv	axial_rot	elbow_flexion	pro_sup
      3.00000000	      0.76055701	    -10.42075749	     -7.43192879	     -0.03589412	      0.02262671	      0.04476699	    -22.60217894	    -15.29894090	    -12.55619143	    -13.13162694	     15.57574496	     24.21631360	    -17.00000000	     21.80922382	     35.21545801	      0.00120871	     -0.00000000
      3.02000000	      0.86895978	    -10.23902004	     -7.65196885	     -0.03568200	      0.02192532	      0.04494439	    -22.36509140	    -15.16516542	    -12.46333765	    -12.93402020	     15.21953387	     24.14145737	    -17.00000000	     21.39761847	     34.86400166	      0.00120871	     -0.00000000
      3.04000000	      1.16807771	    -10.16054115	     -7.80891223	     -0.03526861	      0.02119678	      0.04544547	    -22.27768419	    -14.82165890	    -12.43860879	    -12.67504512	     15.22606721	     23.93453237	    -17.00000000	     20.68947032	     36.26226188	      0.00120871	     -0.00000000
      3.06000000	      1.39170735	    -10.02646590	     -8.03469963	     -0.03500018	      0.02047418	      0.04575562	    -22.12940953	    -14.58264295	    -12.34704200	    -12.46843925	     15.14002966	     23.78547404	    -17.00000000	     20.18839596	     36.89526326	      0.00120871	     -0.00000000
      3.08000000	      1.66620483	     -9.84775847	     -8.19170118	     -0.03487658	      0.01976705	      0.04600691	    -22.01542816	    -14.26887133	    -12.29887780	    -12.21984567	     15.10270390	     23.60021982	    -17.00000000	     19.73555141	     37.37108389	      0.00120871	     -0.00000000
      3.10000000	      1.84914296	     -9.75984421	     -8.37191745	     -0.03477320	      0.01911193	      0.04630119	    -21.85004092	    -14.07658668	    -12.18175412	    -12.04099020	     14.99156033	     23.47875553	    -17.00000000	     19.36441852	     37.85656814	      0.00120871	     -0.00000000
      3.12000000	      2.04752164	     -9.66541138	     -8.54666798	     -0.03474582	      0.01849375	      0.04653647	    -21.70764170	    -13.87926553	    -12.07528732	    -11.86954886	     14.92123442	     23.35501521	    -17.00000000	     19.03349546	     38.37076902	      0.00120871	     -0.00000000
      3.14000000	      2.13235777	     -9.52567363	     -8.73554789	     -0.03490144	      0.01788338	      0.04656169	    -21.54011268	    -13.78708080	    -11.96442391	    -11.74783495	     14.74095485	     23.29661521	    -17.00000000	     18.84523707	     38.12246325	      0.00120871	     -0.00000000
      3.16000000	      2.39186038	     -9.53178586	     -8.85105790	     -0.03492944	      0.01736734	      0.04689106	    -21.44575762	    -13.53094800	    -11.87785838	    -11.56359547	     14.78565579	     23.13865026	    -17.00000000	     18.50740394	     39.22304851	      0.00120871	     -0.00000000
      3.18000000	      2.50620065	     -9.52673092	     -8.95744252	     -0.03515940	      0.01701746	      0.04711378	    -21.33093930	    -13.48057909	    -11.82032348	    -11.47989791	     14.62314204	     23.11212368	    -17.00000000	     18.40678340	     38.66636736	      0.00120871	     -0.00000000
      3.20000000	      2.59428823	     -9.50362208	     -9.15541501	     -0.03541161	      0.01636589	      0.04708805	    -21.23573795	    -13.33019192	    -11.71019768	    -11.37026843	     14.65139315	     23.01007660	    -17.00000000	     18.11310493	     39.64763925	      0.00120871	     -0.00000000
      3.22000000	      2.67207597	     -9.51935256	     -9.25114708	     -0.03584370	      0.01606036	      0.04715317	    -21.13748412	    -13.27313231	    -11.66357947	    -11.28868428	     14.51451853	     22.98056202	    -17.00000000	     18.04830196	     39.10187371	      0.00120871	     -0.00000000
      3.24000000	      2.72667185	     -9.54792047	     -9.34972418	     -0.03634646	      0.01573204	      0.04711197	    -21.04634770	    -13.20805191	    -11.62256171	    -11.20438203	     14.38961346	     22.94710871	    -17.00000000	     18.00199876	     38.57573178	      0.00120871	     -0.00000000
